<svg width="24" height="24" viewBox="0 0 24 24" fill="none" xmlns="http://www.w3.org/2000/svg">
<path d="M8.25284 23.9965L8.24919 7.97174H13.0938V10.1619H13.0944V10.1624H13.1632V10.163L13.1637 10.1622C14.1484 8.49787 15.989 7.50037 17.9411 7.57294C20.4995 7.57294 22.0141 8.40317 22.889 9.77257C23.764 11.142 23.9995 13.0508 23.9995 15.2081V23.9984H18.9545V16.2052C18.9545 15.275 18.9459 14.2119 18.613 13.3814C18.4466 12.9661 18.199 12.609 17.831 12.3556C17.4629 12.1023 16.9744 11.9528 16.3259 11.9528C15.6701 11.9528 15.153 12.0794 14.7461 12.3021C14.3392 12.5247 14.0426 12.8434 13.8281 13.2273C13.399 13.9953 13.2978 15.0245 13.2978 16.0698V23.9965H8.25284ZM5.45022 7.97009V23.9995H0.405266V7.97009H5.45022ZM2.92767 0.000541126C4.53302 0.000841599 5.85387 1.304 5.85387 2.88762C5.85387 4.4714 4.53272 5.7747 2.92721 5.7747C1.3217 5.7747 0.000541126 4.4714 0.000541126 2.88762C0.000541126 1.30385 1.32216 0.000541126 2.92767 0.000541126Z" fill="white" stroke="url(#paint0_linear_881_8909)" stroke-width="0.00108225"/>
<defs>
<linearGradient id="paint0_linear_881_8909" x1="3.82041" y1="2.79603" x2="19.1299" y2="21.7571" gradientUnits="userSpaceOnUse">
<stop stop-color="white" stop-opacity="0.25"/>
<stop offset="1" stop-color="white" stop-opacity="0"/>
</linearGradient>
</defs>
</svg>
