<svg width="277" height="58" viewBox="0 0 277 58" fill="none" xmlns="http://www.w3.org/2000/svg">
<path d="M61.896 20.404C54.552 20.404 48.972 24.94 48.972 33.22C48.972 41.644 54.552 46 61.896 46C69.24 46 74.82 41.5 74.82 33.22C74.82 24.94 69.24 20.404 61.896 20.404ZM61.896 40.42C57.54 40.42 54.336 38.224 54.336 33.22C54.336 28.216 57.54 25.984 61.896 25.984C66.252 25.984 69.456 28.288 69.456 33.22C69.456 38.044 66.252 40.42 61.896 40.42ZM98.6351 29.224C98.6351 20.8 91.9031 20.8 88.8791 20.8C87.4031 20.8 83.4071 20.836 82.0751 20.836V20.8H76.6031V46H82.0751V37.612C83.1911 37.612 86.9351 37.612 87.8711 37.612C88.1951 37.612 88.6631 37.612 89.2031 37.612L93.3071 46H99.2471L94.4231 36.352C96.6911 35.164 98.6351 33.58 98.6351 29.224ZM88.4471 32.716C87.9791 32.716 83.2631 32.716 82.0751 32.716V25.732C83.5151 25.732 87.5471 25.732 88.5551 25.732C90.2471 25.732 93.5591 25.732 93.5591 29.224C93.5591 32.752 90.0311 32.716 88.4471 32.716ZM124.473 20.836H117.129L106.581 32.392V20.8H101.109V46H106.581V40.6L110.397 36.352L117.633 46H124.473L114.249 32.14L124.473 20.836ZM135.418 30.736C131.206 30.052 129.73 29.548 129.73 28.216C129.73 26.992 130.702 25.48 134.95 25.48C140.17 25.48 140.926 28.072 140.926 29.8C142.87 29.8 146.686 29.8 146.686 29.8C146.686 25.984 144.742 20.512 134.95 20.512C126.706 20.512 124.078 24.616 124.078 28.18C124.078 32.788 127.462 34.336 135.022 35.452C139.954 36.172 141.682 36.496 141.682 38.188C141.682 40.132 139.954 41.104 135.814 41.104C132.538 41.104 129.19 40.492 129.19 36.712C126.094 36.712 124.69 36.712 123.574 36.712C123.574 39.124 123.538 46 135.958 46C143.338 46 147.514 44.452 147.514 38.188C147.514 32.5 141.07 31.672 135.418 30.736ZM147.585 25.804H157.089V46H162.561V25.804H172.101V20.8H147.585V25.804ZM184.996 20.836H175.816L166.816 46H172.468L173.98 41.86H186.832L188.308 46H193.996L184.996 20.836ZM175.744 36.856L179.704 25.804H181.108L185.032 36.856H175.744ZM189.492 25.804H198.996V46H204.468V25.804H214.008V20.8H189.492V25.804ZM221.436 46V20.8H215.964V46H221.436ZM235.814 20.404C228.47 20.404 222.89 24.94 222.89 33.22C222.89 41.644 228.47 46 235.814 46C243.158 46 248.738 41.5 248.738 33.22C248.738 24.94 243.158 20.404 235.814 20.404ZM235.814 40.42C231.458 40.42 228.254 38.224 228.254 33.22C228.254 28.216 231.458 25.984 235.814 25.984C240.17 25.984 243.374 28.288 243.374 33.22C243.374 38.044 240.17 40.42 235.814 40.42ZM270.211 38.908H269.563L258.547 20.836H258.043V20.8H250.663V46H256.135V27.928H256.747L267.799 46H275.683V20.8H270.211V38.908Z" fill="white"/>
<path d="M36.999 39.9735C36.9659 40.1135 36.841 40.2123 36.6972 40.2123H36.6397C36.4963 40.2123 36.3715 40.114 36.3381 39.9745L30.8513 17.0913C30.8179 16.9518 30.6931 16.8534 30.5497 16.8534H23.0376C22.8942 16.8534 22.7695 16.9518 22.736 17.0913L17.2492 39.9745C17.2158 40.114 17.0911 40.2123 16.9476 40.2123H16.7221C16.5781 40.2123 16.453 40.1132 16.4201 39.9731L7.08883 0.239246C7.05591 0.0990814 6.93087 0 6.78689 0H0.392034C0.191894 0 0.044151 0.186746 0.0901993 0.381516L10.819 45.7612C10.8521 45.9012 10.977 46 11.1208 46H21.7055C21.8493 46 21.9742 45.9011 22.0073 45.7612L26.4424 27.0021C26.4755 26.8621 26.6005 26.7633 26.7443 26.7633H26.8015C26.945 26.7633 27.0698 26.8618 27.1032 27.0014L31.5797 45.7618C31.613 45.9015 31.7378 46 31.8814 46H42.2566C42.4001 46 42.5249 45.9016 42.5583 45.762L49.4182 17.0914C49.4516 16.9519 49.5763 16.8534 49.7198 16.8534H56.8414C57.0127 16.8534 57.1515 16.7146 57.1515 16.5433V10.2239C57.1515 10.0527 57.0127 9.91379 56.8414 9.91379H44.3483C44.2045 9.91379 44.0796 10.0127 44.0465 10.1526L36.999 39.9735Z" fill="white"/>
</svg>
